<?xml version="1.0" encoding="UTF-8"?>
<svg width="1491px" height="501px" viewBox="0 0 1491 501" version="1.1" xmlns="http://www.w3.org/2000/svg" xmlns:xlink="http://www.w3.org/1999/xlink">
    <!-- Generator: Sketch 52.3 (67297) - http://www.bohemiancoding.com/sketch -->
    <title>emotion</title>
    <desc>Created with Sketch.</desc>
    <g id="Page-1" stroke="none" stroke-width="1" fill="none" fill-rule="evenodd">
        <g id="emotion">
            <g id="g676" transform="translate(97.434914, 179.397200) scale(-1, 1) rotate(-180.000000) translate(-97.434914, -179.397200) translate(0.434914, 75.897200)" fill="#FFFFFF" fill-rule="nonzero">
                <path d="M140.125776,124.282749 C135.251401,151.508771 123.63097,165.889282 97.7577467,165.889282 C64.0174617,165.889282 54.2887292,139.42066 53.5380554,124.282749 L140.125776,124.282749 Z M53.5380554,90.2300236 C55.039403,56.2075943 71.5141907,40.7061313 101.160801,40.7061313 C122.509964,40.7061313 139.775462,53.9353929 143.148489,66.0437018 L190.000543,66.0437018 C174.977058,19.8927662 143.148489,0.220551195 99.2791123,0.220551195 C38.164256,0.220551195 0.290260536,42.5743858 0.290260536,103.095733 C0.290260536,161.71853 40.4162774,206.354664 99.2791123,206.354664 C165.248326,206.354664 197.116931,150.387819 193.353553,90.2300236 L53.5380554,90.2300236 Z" id="path678"></path>
            </g>
            <g id="g680" transform="translate(97.434914, 179.397200) scale(-1, 1) rotate(-180.000000) translate(-97.434914, -179.397200) translate(0.434914, 75.897200)" stroke="#FFFFFF" stroke-linecap="round" stroke-linejoin="round" stroke-width="1.14502282">
                <path d="M140.125776,124.282749 C135.251401,151.508771 123.63097,165.889282 97.7577467,165.889282 C64.0174617,165.889282 54.2887292,139.42066 53.5380554,124.282749 L140.125776,124.282749 Z M53.5380554,90.2300236 C55.039403,56.2075943 71.5141907,40.7061313 101.160801,40.7061313 C122.509964,40.7061313 139.775462,53.9353929 143.148489,66.0437018 L190.000543,66.0437018 C174.977058,19.8927662 143.148489,0.220551195 99.2791123,0.220551195 C38.164256,0.220551195 0.290260536,42.5743858 0.290260536,103.095733 C0.290260536,161.71853 40.4162774,206.354664 99.2791123,206.354664 C165.248326,206.354664 197.116931,150.387819 193.353553,90.2300236 L53.5380554,90.2300236 Z" id="path682"></path>
            </g>
            <g id="g684" transform="translate(811.403930, 154.977617) scale(-1, 1) rotate(-180.000000) translate(-811.403930, -154.977617) translate(742.903930, 13.477617)" fill="#FFFFFF">
                <path d="M94.08984,218.170806 L136.968327,218.170806 L136.968327,178.634501 L94.08984,178.634501 L94.08984,72.1641918 C94.08984,52.1890166 99.0442871,47.1901734 118.832048,47.1901734 C125.02761,47.1901734 130.792784,47.604219 136.968327,48.8665532 L136.968327,2.64492683 C127.08946,1.00894181 114.317997,0.584797542 102.767629,0.584797542 C66.8854215,0.584797542 35.5372836,8.90610409 35.5372836,51.7850697 L35.5372836,178.634501 L0.075453288,178.634501 L0.075453288,218.170806 L35.5372836,218.170806 L35.5372836,282.681129 L94.08984,282.681129 L94.08984,218.170806 Z" id="path686"></path>
            </g>
            <g id="g688" transform="translate(811.403930, 154.977617) scale(-1, 1) rotate(-180.000000) translate(-811.403930, -154.977617) translate(742.903930, 13.477617)" stroke="#FFFFFF" stroke-linecap="round" stroke-linejoin="round" stroke-width="1.14502282">
                <path d="M94.08984,218.170806 L136.968327,218.170806 L136.968327,178.634501 L94.08984,178.634501 L94.08984,72.1641918 C94.08984,52.1890166 99.0442871,47.1901734 118.832048,47.1901734 C125.02761,47.1901734 130.792784,47.604219 136.968327,48.8665532 L136.968327,2.64492683 C127.08946,1.00894181 114.317997,0.584797542 102.767629,0.584797542 C66.8854215,0.584797542 35.5372836,8.90610409 35.5372836,51.7850697 L35.5372836,178.634501 L0.075453288,178.634501 L0.075453288,218.170806 L35.5372836,218.170806 L35.5372836,282.681129 L94.08984,282.681129 L94.08984,218.170806 Z" id="path690"></path>
            </g>
            <path d="M930.84197,81.563651 L988.68387,81.563651 L988.68387,293.999341 L930.84197,293.999341 L930.84197,81.563651 Z M988.68387,48.702564 L930.84197,48.702564 L930.84197,0.632878 L988.68387,0.632878 L988.68387,48.702564 Z" id="path692" stroke="#FFFFFF" stroke-width="1.14499998" fill="#FFFFFF" fill-rule="nonzero" stroke-linecap="round" stroke-linejoin="round"></path>
            <g id="g694" transform="translate(1135.934970, 191.441363) scale(-1, 1) rotate(-180.000000) translate(-1135.934970, -191.441363) translate(1025.836146, 80.355960)" fill="#B7202C" fill-rule="nonzero">
                <path d="M110.098824,50.493365 C147.612496,50.493365 158.822558,82.889908 158.822558,114.872405 C158.822558,147.248751 147.612496,179.625097 110.098824,179.625097 C72.9955203,179.625097 61.7954672,147.248751 61.7954672,114.872405 C61.7954672,82.889908 72.9955203,50.493365 110.098824,50.493365 M110.098824,221.362912 C173.125396,221.362912 213.721835,179.231248 213.721835,114.872405 C213.721835,50.8771146 173.125396,8.75554949 110.098824,8.75554949 C47.4926291,8.75554949 6.89618998,50.8771146 6.89618998,114.872405 C6.89618998,179.231248 47.4926291,221.362912 110.098824,221.362912" id="path696"></path>
            </g>
            <g id="g698" transform="translate(1135.934970, 191.441363) scale(-1, 1) rotate(-180.000000) translate(-1135.934970, -191.441363) translate(1025.836146, 80.355960)" stroke="#B7202C" stroke-linecap="round" stroke-linejoin="round" stroke-width="1.14502282">
                <path d="M110.098824,50.493365 C147.612496,50.493365 158.822558,82.889908 158.822558,114.872405 C158.822558,147.248751 147.612496,179.625097 110.098824,179.625097 C72.9955203,179.625097 61.7954672,147.248751 61.7954672,114.872405 C61.7954672,82.889908 72.9955203,50.493365 110.098824,50.493365 Z M110.098824,221.362912 C173.125396,221.362912 213.721835,179.231248 213.721835,114.872405 C213.721835,50.8771146 173.125396,8.75554949 110.098824,8.75554949 C47.4926291,8.75554949 6.89618998,50.8771146 6.89618998,114.872405 C6.89618998,179.231248 47.4926291,221.362912 110.098824,221.362912 Z" id="path700"></path>
            </g>
            <g id="g702" transform="translate(1378.601894, 183.269421) scale(-1, 1) rotate(-180.000000) translate(-1378.601894, -183.269421) translate(1268.503070, 72.184018)" fill="#B7202C">
                <path d="M0,212.072133 L59.8537243,212.072133 L59.8537243,182.594107 L61.1749102,182.594107 C77.1192217,206.356284 104.603892,217.808179 131.207771,217.808179 C198.137847,217.808179 214.992976,183.008152 214.992976,130.565743 L214.992976,0.353453555 L152.046476,0.353453555 L152.046476,119.941939 C152.046476,154.741966 140.97654,171.950105 111.71027,171.950105 C77.569626,171.950105 62.9465004,154.338019 62.9465004,111.33787 L62.9465004,0.353453555 L0,0.353453555 L0,212.072133 Z" id="path704"></path>
            </g>
            <g id="g706" transform="translate(1378.601894, 183.269421) scale(-1, 1) rotate(-180.000000) translate(-1378.601894, -183.269421) translate(1268.503070, 72.184018)" stroke="#B7202C" stroke-linecap="round" stroke-linejoin="round" stroke-width="1.08877159">
                <path d="M0,212.072133 L59.8537243,212.072133 L59.8537243,182.594107 L61.1749102,182.594107 C77.1192217,206.356284 104.603892,217.808179 131.207771,217.808179 C198.137847,217.808179 214.992976,183.008152 214.992976,130.565743 L214.992976,0.353453555 L152.046476,0.353453555 L152.046476,119.941939 C152.046476,154.741966 140.97654,171.950105 111.71027,171.950105 C77.569626,171.950105 62.9465004,154.338019 62.9465004,111.33787 L62.9465004,0.353453555 L0,0.353453555 L0,212.072133 Z" id="path708"></path>
            </g>
            <g id="g710" transform="translate(626.913596, 185.864356) scale(-1, 1) rotate(-180.000000) translate(-626.913596, -185.864356) translate(522.913596, 78.864356)" fill="#FFFFFF" fill-rule="nonzero">
                <path d="M104.098824,42.493365 C141.57246,42.493365 152.80254,74.8798093 152.80254,106.882504 C152.80254,139.238652 141.57246,171.625097 104.098824,171.625097 C66.9554844,171.625097 55.7754492,139.238652 55.7754492,106.882504 C55.7754492,74.8798093 66.9554844,42.493365 104.098824,42.493365 M104.098824,213.362912 C167.105378,213.362912 207.721835,171.22115 207.721835,106.882504 C207.721835,42.8872132 167.105378,0.745450818 104.098824,0.745450818 C41.4626021,0.745450818 0.85615404,42.8872132 0.85615404,106.882504 C0.85615404,171.22115 41.4626021,213.362912 104.098824,213.362912" id="path712"></path>
            </g>
            <g id="g714" transform="translate(626.913596, 185.864356) scale(-1, 1) rotate(-180.000000) translate(-626.913596, -185.864356) translate(522.913596, 78.864356)" stroke="#FFFFFF" stroke-linecap="round" stroke-linejoin="round" stroke-width="1.14502282">
                <path d="M104.098824,42.493365 C141.57246,42.493365 152.80254,74.8798093 152.80254,106.882504 C152.80254,139.238652 141.57246,171.625097 104.098824,171.625097 C66.9554844,171.625097 55.7754492,139.238652 55.7754492,106.882504 C55.7754492,74.8798093 66.9554844,42.493365 104.098824,42.493365 Z M104.098824,213.362912 C167.105378,213.362912 207.721835,171.22115 207.721835,106.882504 C207.721835,42.8872132 167.105378,0.745450818 104.098824,0.745450818 C41.4626021,0.745450818 0.85615404,42.8872132 0.85615404,106.882504 C0.85615404,171.22115 41.4626021,213.362912 104.098824,213.362912 Z" id="path716"></path>
            </g>
            <g id="g720" transform="translate(356.779720, 257.196732) scale(-1, 1) rotate(-180.000000) translate(-356.779720, -257.196732) translate(156.600040, 4.729907)" fill="#B7202C">
                <path d="M100.08984,121.184076 C100.08984,121.184076 76.6688174,144.835168 68.0510822,156.650616 C59.3833021,168.476162 42.1578406,195.227546 37.2033935,203.296386 C32.2689644,211.395522 21.1990281,235.016318 21.1990281,235.016318 L13.1718229,258.041292 L8.84794186,277.329758 L8.23739383,310.907846 L8.84794186,339.517386 L11.910691,357.563715 L19.9378961,383.042667 L31.0378594,405.441524 L46.4416858,425.972126 L62.5061051,442.766219 L80.9926985,457.086137 L95.7559499,464.549057 L105.01426,466.407213 L119.807538,466.407213 L135.221374,464.549057 L145.70078,458.308077 L153.727985,450.249336 L165.428488,435.919319 L172.815118,424.740088 L177.769565,415.388717 L178.370104,412.298523 L182.693985,413.540659 L198.738386,435.3033 L217.22498,453.33953 L234.480468,468.25527 L254.808715,481.333051 L272.694769,490.048206 L291.191372,494.400734 L310.288513,495.016753 L325.722366,494.400734 L341.74675,488.806069 L352.856722,480.706933 L368.270557,465.791193 L378.739955,445.886709 L387.347681,428.466498 L393.523224,407.329975 L395.975425,382.436747 L397.246566,343.253895 L394.143781,304.060945 L387.968238,279.803933 L375.647179,245.589629 L355.919471,207.032895 L337.432878,177.797237 L307.235773,137.998367 L281.933061,108.75261 L255.429272,82.6374412 L224.61161,55.2599387 L201.821153,39.7281796 L180.251793,27.2765158 L148.783547,9.23018712 L178.970643,34.7495338 L206.125016,56.5020754 L227.684368,78.9009321 L247.422084,104.41018 L265.908678,129.909329 L287.518074,167.839945 L302.281326,200.175896 L318.325727,234.400299 L328.805133,269.240721 L333.709536,297.850261 L333.709536,328.944076 L331.8879,361.916243 L325.722366,384.305001 L316.464056,403.583368 L299.198559,417.893187 L284.425298,422.255814 L274.55644,422.255814 L265.908678,421.619598 L256.650368,417.277168 L242.487655,411.046287 L215.363309,385.537039 L196.276176,360.03789 L179.601209,330.792133 L166.669602,300.960653 L161.745181,290.377243 L141.396917,304.676964 L145.070214,331.428349 L144.469675,358.169635 L141.396917,383.042667 L130.917511,399.867056 L119.176972,407.329975 L106.875931,410.410071 L91.4721048,405.441524 L80.3621325,397.372684 L66.1693932,378.07412 L56.280517,358.169635 L48.9038958,330.196311 L46.4416858,295.982007 L48.9038958,266.120231 L53.8383249,241.863218 L62.5061051,210.769404 L76.0482604,173.444709 L89.6104338,147.319442 L99.479292,128.657094 L106.235356,116.841647 L100.08984,121.184076 Z" id="path722"></path>
            </g>
            <g id="g724" transform="translate(356.779720, 257.196732) scale(-1, 1) rotate(-180.000000) translate(-356.779720, -257.196732) translate(156.600040, 4.729907)" stroke="#B7202F" stroke-width="0.572511408">
                <path d="M100.08984,121.184076 C100.08984,121.184076 76.6688174,144.835168 68.0510822,156.650616 C59.3833021,168.476162 42.1578406,195.227546 37.2033935,203.296386 C32.2689644,211.395522 21.1990281,235.016318 21.1990281,235.016318 L13.1718229,258.041292 L8.84794186,277.329758 L8.23739383,310.907846 L8.84794186,339.517386 L11.910691,357.563715 L19.9378961,383.042667 L31.0378594,405.441524 L46.4416858,425.972126 L62.5061051,442.766219 L80.9926985,457.086137 L95.7559499,464.549057 L105.01426,466.407213 L119.807538,466.407213 L135.221374,464.549057 L145.70078,458.308077 L153.727985,450.249336 L165.428488,435.919319 L172.815118,424.740088 L177.769565,415.388717 L178.370104,412.298523 L182.693985,413.540659 L198.738386,435.3033 L217.22498,453.33953 L234.480468,468.25527 L254.808715,481.333051 L272.694769,490.048206 L291.191372,494.400734 L310.288513,495.016753 L325.722366,494.400734 L341.74675,488.806069 L352.856722,480.706933 L368.270557,465.791193 L378.739955,445.886709 L387.347681,428.466498 L393.523224,407.329975 L395.975425,382.436747 L397.246566,343.253895 L394.143781,304.060945 L387.968238,279.803933 L375.647179,245.589629 L355.919471,207.032895 L337.432878,177.797237 L307.235773,137.998367 L281.933061,108.75261 L255.429272,82.6374412 L224.61161,55.2599387 L201.821153,39.7281796 L180.251793,27.2765158 L148.783547,9.23018712 L178.970643,34.7495338 L206.125016,56.5020754 L227.684368,78.9009321 L247.422084,104.41018 L265.908678,129.909329 L287.518074,167.839945 L302.281326,200.175896 L318.325727,234.400299 L328.805133,269.240721 L333.709536,297.850261 L333.709536,328.944076 L331.8879,361.916243 L325.722366,384.305001 L316.464056,403.583368 L299.198559,417.893187 L284.425298,422.255814 L274.55644,422.255814 L265.908678,421.619598 L256.650368,417.277168 L242.487655,411.046287 L215.363309,385.537039 L196.276176,360.03789 L179.601209,330.792133 L166.669602,300.960653 L161.745181,290.377243 L141.396917,304.676964 L145.070214,331.428349 L144.469675,358.169635 L141.396917,383.042667 L130.917511,399.867056 L119.176972,407.329975 L106.875931,410.410071 L91.4721048,405.441524 L80.3621325,397.372684 L66.1693932,378.07412 L56.280517,358.169635 L48.9038958,330.196311 L46.4416858,295.982007 L48.9038958,266.120231 L53.8383249,241.863218 L62.5061051,210.769404 L76.0482604,173.444709 L89.6104338,147.319442 L99.479292,128.657094 L106.235356,116.841647 L100.08984,121.184076 Z" id="path726"></path>
            </g>
            <g id="g728" transform="translate(1124.936162, 402.592418) scale(-1, 1) rotate(-180.000000) translate(-1124.936162, -402.592418) translate(1069.886750, 321.803034)" fill="#231F20" fill-rule="nonzero">
                <path d="M50.04492,70.690711 C68.3913877,70.690711 82.564109,82.5263558 88.4093557,98.0581148 C87.9889783,123.769336 74.2366343,140.119088 52.567184,140.119088 C31.268066,140.119088 18.5966923,125.819367 18.5966923,105.813896 C18.5966923,82.9303027 34.2107073,70.690711 50.04492,70.690711 Z M17.3255513,22.2877713 C24.2117323,16.9960667 31.268066,13.9159714 42.9785773,13.9159714 C66.7198873,13.9159714 87.3584124,34.7495338 89.2601193,75.5986661 C80.071872,66.1968015 68.801756,58.0269751 47.9730603,58.0269751 C25.4328283,58.0269751 2.74246162,73.5486355 2.74246162,105.39985 C2.74246162,136.857216 26.283592,152.782824 51.306052,152.782824 C82.564109,152.782824 105.074314,134.797087 105.074314,84.5763864 C105.074314,38.0215038 83.83525,1.25223545 43.3789367,1.25223545 C27.1343556,1.25223545 15.2436826,5.75624361 10.8497387,9.8361075 L17.3255513,22.2877713 Z" id="path730"></path>
            </g>
            <g id="g732" transform="translate(1123.886750, 406.381802) scale(-1, 1) rotate(-180.000000) translate(-1123.886750, -406.381802) translate(1071.886750, 330.381802)" fill="#FFFFFF" fill-rule="nonzero" stroke="#FFFFFF" stroke-width="0.758765159">
                <path d="M48.04492,69.690711 C66.3913877,69.690711 80.564109,81.5263558 86.4093557,97.0581148 C85.9889783,122.769336 72.2366343,139.119088 50.567184,139.119088 C29.268066,139.119088 16.5966923,124.819367 16.5966923,104.813896 C16.5966923,81.9303027 32.2107073,69.690711 48.04492,69.690711 Z M15.3255513,21.2877713 C22.2117323,15.9960667 29.268066,12.9159714 40.9785773,12.9159714 C64.7198873,12.9159714 85.3584124,33.7495338 87.2601193,74.5986661 C78.071872,65.1968015 66.801756,57.0269751 45.9730603,57.0269751 C23.4328283,57.0269751 0.742461616,72.5486355 0.742461616,104.39985 C0.742461616,135.857216 24.283592,151.782824 49.306052,151.782824 C80.564109,151.782824 103.074314,133.797087 103.074314,83.5763864 C103.074314,37.0215038 81.83525,0.252235452 41.3789367,0.252235452 C25.1343556,0.252235452 13.2436826,4.75624361 8.84973866,8.8361075 L15.3255513,21.2877713 Z" id="path734"></path>
            </g>
            <g id="g736" transform="translate(1250.960366, 406.141063) scale(-1, 1) rotate(-180.000000) translate(-1250.960366, -406.141063) translate(1195.960366, 329.641063)" fill="#FFFFFF" fill-rule="nonzero">
                <path d="M55.053904,139.381422 C38.6191523,139.381422 22.3545533,132.423436 22.3545533,116.093882 C22.3545533,100.168275 42.7928986,91.1804558 55.053904,87.7065123 C71.7588983,91.8065735 87.7832817,101.784062 87.7832817,116.093882 C87.7832817,132.423436 71.5086737,139.381422 55.053904,139.381422 M55.053904,13.1783055 C82.3684213,13.1783055 94.0489057,27.8718747 94.0489057,40.9698536 C94.0489057,58.097203 76.1328243,66.6810751 52.3714963,74.4267573 C34.0150196,66.6810751 16.1089473,58.097203 16.1089473,40.9698536 C16.1089473,27.8718747 27.7594046,13.1783055 55.053904,13.1783055 M55.053904,0.504470904 C18.2008249,0.504470904 0.264725584,18.4902075 0.264725584,40.9698536 C0.264725584,59.733188 15.2381656,72.8008709 33.1942829,80.980796 L33.1942829,81.3746443 C16.5193156,87.5045388 6.54035855,99.9764 6.54035855,115.27589 C6.54035855,139.381422 27.3290183,152.045158 55.053904,152.045158 C82.8088166,152.045158 103.637512,139.381422 103.637512,115.27589 C103.637512,99.9764 93.6385373,87.5045388 76.953561,81.3746443 L76.953561,80.980796 C94.8996693,74.6489281 109.893127,60.9450288 109.893127,40.9698536 C109.893127,18.4902075 91.957028,0.504470904 55.053904,0.504470904" id="path738"></path>
            </g>
            <g id="g740" transform="translate(1250.960366, 406.141063) scale(-1, 1) rotate(-180.000000) translate(-1250.960366, -406.141063) translate(1195.960366, 329.641063)" fill="#FFFFFF" fill-rule="nonzero" stroke="#FFFFFF" stroke-width="0.758765159">
                <path d="M55.053904,139.381422 C38.6191523,139.381422 22.3545533,132.423436 22.3545533,116.093882 C22.3545533,100.168275 42.7928986,91.1804558 55.053904,87.7065123 C71.7588983,91.8065735 87.7832817,101.784062 87.7832817,116.093882 C87.7832817,132.423436 71.5086737,139.381422 55.053904,139.381422 Z M55.053904,13.1783055 C82.3684213,13.1783055 94.0489057,27.8718747 94.0489057,40.9698536 C94.0489057,58.097203 76.1328243,66.6810751 52.3714963,74.4267573 C34.0150196,66.6810751 16.1089473,58.097203 16.1089473,40.9698536 C16.1089473,27.8718747 27.7594046,13.1783055 55.053904,13.1783055 Z M55.053904,0.504470904 C18.2008249,0.504470904 0.264725584,18.4902075 0.264725584,40.9698536 C0.264725584,59.733188 15.2381656,72.8008709 33.1942829,80.980796 L33.1942829,81.3746443 C16.5193156,87.5045388 6.54035855,99.9764 6.54035855,115.27589 C6.54035855,139.381422 27.3290183,152.045158 55.053904,152.045158 C82.8088166,152.045158 103.637512,139.381422 103.637512,115.27589 C103.637512,99.9764 93.6385373,87.5045388 76.953561,81.3746443 L76.953561,80.980796 C94.8996693,74.6489281 109.893127,60.9450288 109.893127,40.9698536 C109.893127,18.4902075 91.957028,0.504470904 55.053904,0.504470904 Z" id="path742"></path>
            </g>
            <polygon id="path744" stroke="#FFFFFF" stroke-width="0.75874996" fill="#FFFFFF" points="1356.72417 480.087601 1336.26587 480.087601 1336.26587 457.618051 1356.72417 457.618051"></polygon>
            <g id="g746" transform="translate(1437.590806, 404.570709) scale(-1, 1) rotate(-180.000000) translate(-1437.590806, -404.570709) translate(1377.536902, 323.781325)" fill="#231F20">
                <path d="M20.017968,40.394692 C31.4682457,25.2769785 45.640967,15.8953113 61.2649911,15.8953113 C83.3848457,15.8953113 96.7468393,26.9129635 96.7468393,44.4846546 C96.7468393,65.1162435 84.2155914,77.5679073 54.1986484,77.5679073 L39.3753431,77.5679073 L39.3753431,90.2215446 L48.3534017,90.2215446 C78.3903627,90.2215446 91.301952,99.6335078 91.301952,117.790922 C91.301952,132.696563 78.170165,142.098428 63.787255,142.098428 C45.4407874,142.098428 37.503663,134.342647 27.524706,121.678911 L15.2536916,129.838639 C25.4328283,143.744511 39.6155587,154.762164 63.787255,154.762164 C90.4511884,154.762164 107.136165,141.270337 107.136165,117.992895 C107.136165,100.239428 95.4556804,89.8276963 83.7852051,85.3236882 C107.556542,76.3459679 112.571043,59.602368 112.571043,46.1206396 C112.571043,21.0153385 92.7832817,3.23157536 61.2649911,3.23157536 C32.539207,3.23157536 15.003467,20.8032664 7.92711533,32.2349642 L20.017968,40.394692 Z" id="path748"></path>
            </g>
            <g id="g750" transform="translate(1437.536902, 406.360093) scale(-1, 1) rotate(-180.000000) translate(-1437.536902, -406.360093) translate(1384.536902, 330.360093)" fill="#FFFFFF" stroke="#FFFFFF" stroke-width="0.758765159">
                <path d="M13.017968,37.394692 C24.4682457,22.2769785 38.640967,12.8953113 54.2649911,12.8953113 C76.3848457,12.8953113 89.7468393,23.9129635 89.7468393,41.4846546 C89.7468393,62.1162435 77.2155914,74.5679073 47.1986484,74.5679073 L32.3753431,74.5679073 L32.3753431,87.2215446 L41.3534017,87.2215446 C71.3903627,87.2215446 84.301952,96.6335078 84.301952,114.790922 C84.301952,129.696563 71.170165,139.098428 56.787255,139.098428 C38.4407874,139.098428 30.503663,131.342647 20.524706,118.678911 L8.25369162,126.838639 C18.4328283,140.744511 32.6155587,151.762164 56.787255,151.762164 C83.4511884,151.762164 100.136165,138.270337 100.136165,114.992895 C100.136165,97.2394282 88.4556804,86.8276963 76.7852051,82.3236882 C100.556542,73.3459679 105.571043,56.602368 105.571043,43.1206396 C105.571043,18.0153385 85.7832817,0.23157536 54.2649911,0.23157536 C25.539207,0.23157536 8.00346702,17.8032664 0.927115328,29.2349642 L13.017968,37.394692 Z" id="path752"></path>
            </g>
        </g>
    </g>
</svg>